<?xml version="1.0" standalone="no"?>
<!DOCTYPE svg PUBLIC "-//W3C//DTD SVG 20010904//EN"
 "http://www.w3.org/TR/2001/REC-SVG-20010904/DTD/svg10.dtd">
<svg version="1.0" xmlns="http://www.w3.org/2000/svg"
 width="792.000000pt" height="792.000000pt" viewBox="0 0 792.000000 792.000000"
 preserveAspectRatio="xMidYMid meet">
<metadata>
Created by potrace 1.14, written by Peter Selinger 2001-2017
</metadata>
<g transform="translate(0.000000,792.000000) scale(0.100000,-0.100000)"
fill="#000000" stroke="none">
<path d="M3029 7916 c-2 -2 -47 -6 -99 -10 -578 -38 -1177 -260 -1643 -609
-150 -112 -176 -134 -310 -264 -396 -384 -670 -859 -796 -1380 -26 -107 -36
-166 -66 -383 -11 -76 -13 -400 -4 -495 43 -451 172 -850 396 -1224 25 -42 56
-90 69 -108 13 -17 24 -36 24 -41 0 -6 3 -12 8 -14 4 -1 34 -39 66 -83 33 -44
62 -82 65 -85 4 -3 26 -30 51 -60 57 -69 225 -238 309 -310 35 -30 69 -60 75
-65 6 -6 38 -31 71 -55 33 -25 61 -48 63 -52 2 -5 10 -8 17 -8 7 0 15 -4 17
-8 3 -9 155 -110 198 -132 14 -7 27 -16 30 -19 3 -3 28 -18 55 -32 193 -103
183 -98 218 -107 9 -2 17 -8 17 -13 0 -5 3 -8 8 -7 6 1 34 -8 82 -29 8 -3 17
-7 20 -8 7 -2 62 -24 80 -32 8 -3 18 -7 23 -8 4 -2 9 -4 12 -5 3 -1 8 -3 13
-4 4 -1 21 -6 37 -13 43 -17 190 -62 217 -67 13 -3 25 -5 28 -6 3 -1 10 -3 15
-5 6 -1 12 -3 15 -4 3 -2 14 -4 25 -6 27 -5 60 -13 60 -15 0 -1 11 -3 25 -4
14 -2 41 -6 60 -10 19 -4 46 -9 60 -11 14 -2 36 -6 50 -9 25 -5 78 -12 175
-22 28 -2 84 -6 126 -8 42 -2 82 -7 89 -11 9 -6 11 -4 5 4 -5 10 -3 11 11 4
21 -11 124 -10 141 0 7 4 14 3 18 -2 3 -7 15 -7 30 -1 15 6 27 6 30 -1 4 -5
12 -6 18 -2 6 4 30 8 52 9 46 2 178 13 215 19 14 2 48 7 75 11 28 4 59 8 70
10 11 1 20 3 20 4 0 2 29 8 70 15 37 6 69 13 73 15 1 2 11 4 22 5 11 1 21 3
23 5 1 1 9 3 17 5 8 2 26 7 40 10 24 6 61 14 84 18 6 1 13 5 16 9 3 4 17 10
30 12 14 2 26 5 28 7 1 1 5 2 10 3 136 35 541 217 620 279 6 5 12 6 12 1 0 -5
4 -4 8 1 4 6 19 18 34 27 l26 17 59 -63 c339 -364 313 -333 303 -367 -5 -16
-11 -33 -15 -39 -3 -5 -7 -42 -8 -80 l-1 -71 301 -297 c166 -163 574 -567 908
-897 749 -740 722 -715 762 -731 66 -28 159 -11 261 48 180 103 316 300 307
446 -4 57 -37 122 -62 122 -9 0 -14 3 -10 6 3 3 -45 56 -106 116 -208 205
-1448 1432 -1613 1596 l-164 164 -86 -3 -87 -3 -56 60 c-31 33 -96 104 -146
158 -49 54 -100 108 -112 118 l-22 20 117 117 c137 137 159 160 256 285 250
320 423 673 520 1061 31 124 55 251 62 330 3 33 9 89 14 125 8 70 5 416 -5
490 -33 256 -65 406 -125 592 -100 313 -287 656 -499 913 -526 639 -1259 1031
-2106 1125 -92 11 -488 23 -496 16z m1549 -904 c120 -82 128 -86 164 -73 17 6
34 8 39 5 5 -3 9 -39 9 -81 l0 -75 58 6 c47 5 54 4 38 -7 -65 -43 -66 -35 13
-134 41 -51 86 -97 105 -106 97 -46 196 -263 182 -402 -3 -33 -8 -71 -11 -85
-6 -29 -13 -69 -19 -107 -12 -77 -19 -120 -22 -138 -8 -40 -17 -151 -16 -182
0 -18 10 -65 21 -105 56 -200 56 -313 1 -435 -11 -23 -23 -44 -27 -46 -4 -3
-8 59 -7 136 1 78 -3 158 -9 176 -9 34 -36 80 -48 81 -3 0 -6 -71 -5 -157 1
-232 -7 -283 -54 -379 -57 -113 -53 -148 30 -293 11 -19 18 -37 16 -39 -8 -8
-66 29 -100 64 -61 63 -70 94 -71 234 0 121 1 127 33 190 23 48 32 78 32 115
0 54 -8 95 -19 95 -11 0 -72 -136 -78 -174 -8 -48 -20 -30 -29 44 -8 53 -7 67
1 118 5 28 -11 25 -55 -11 -61 -49 -106 -146 -94 -201 3 -17 25 -69 49 -116
54 -107 64 -134 69 -191 5 -61 -13 -109 -58 -155 -44 -46 -52 -72 -38 -133 13
-57 7 -66 -13 -19 -38 92 -34 186 13 260 38 60 25 119 -48 213 -21 27 -44 64
-50 80 -17 43 -15 133 4 184 20 54 20 50 -4 44 -29 -8 -90 -85 -90 -115 0 -14
14 -52 32 -84 83 -156 76 -308 -17 -396 -24 -23 -42 -45 -39 -49 5 -9 15 -101
16 -145 0 -56 -45 -115 -104 -137 -21 -7 -14 19 7 27 24 9 57 85 54 124 -3 41
-19 72 -85 174 -98 150 -138 314 -89 368 8 9 15 23 15 31 0 8 7 23 15 33 24
32 18 83 -15 129 -16 23 -34 65 -41 92 -19 81 -20 83 -29 60 -19 -51 -20 -109
-1 -149 10 -23 21 -54 24 -71 8 -45 -28 -145 -68 -192 -44 -52 -47 -90 -11
-157 31 -59 32 -71 6 -113 -26 -43 -35 -42 -34 4 1 21 -9 72 -22 113 -14 41
-23 86 -22 100 2 14 25 69 51 122 55 110 55 130 1 173 -35 28 -35 28 -29 91 4
36 3 76 -3 96 -30 94 -22 123 66 223 87 100 102 130 88 177 l-11 38 -55 -86
c-30 -47 -67 -99 -82 -116 -26 -28 -28 -29 -28 -10 0 12 9 36 20 54 11 18 22
53 26 78 3 25 15 62 27 82 16 29 18 45 12 80 -14 76 -10 190 8 236 21 52 22
72 4 52 -27 -29 -59 -174 -102 -465 -4 -22 -13 -78 -21 -124 -25 -148 -29
-211 -28 -441 3 -475 2 -657 -1 -705 -1 -27 -7 -99 -11 -160 -4 -60 -7 -202
-7 -314 2 -206 9 -251 40 -251 7 0 13 -4 13 -8 0 -5 6 -9 13 -9 16 -1 205 -92
212 -103 5 -8 -93 -4 -135 6 -14 3 -36 8 -50 10 -14 3 -51 14 -83 25 -53 19
-91 29 -127 33 -8 1 -30 10 -47 19 -26 14 -36 28 -49 75 -23 80 -30 91 -54 85
-11 -3 -20 -10 -20 -16 0 -17 -59 -68 -98 -84 -100 -42 -109 -35 -38 27 75 65
95 91 135 174 55 114 73 184 74 285 1 77 -8 253 -18 336 -2 16 -6 82 -10 145
-11 223 -16 266 -35 330 -10 36 -21 83 -25 105 -7 44 -8 178 -1 210 2 11 7 61
11 110 3 50 8 104 10 120 4 28 14 149 20 223 1 17 -1 32 -5 32 -4 0 -27 -17
-50 -37 -23 -21 -75 -60 -114 -87 -216 -147 -306 -224 -424 -359 -81 -93 -119
-221 -96 -327 12 -60 17 -73 61 -170 44 -96 98 -235 124 -320 31 -102 31 -237
1 -336 -38 -124 -142 -213 -292 -249 -44 -10 -60 -17 -60 -27 0 -6 3 -9 6 -6
3 3 22 -12 42 -33 124 -132 109 -124 221 -123 88 0 99 -2 163 -33 94 -46 90
-64 -13 -69 -32 -1 -63 -6 -69 -9 -5 -3 -10 -1 -10 5 0 6 -5 8 -11 5 -13 -9
-135 -14 -419 -20 -124 -2 -268 -7 -320 -10 -52 -4 -111 -8 -131 -9 -20 -2
-41 -6 -47 -10 -7 -4 -12 -3 -12 2 0 6 -17 6 -42 1 -61 -11 -1000 -8 -1015 3
-6 5 -17 8 -25 6 -15 -3 -105 19 -130 33 -10 5 -23 9 -30 9 -28 0 -138 97
-165 145 -25 46 -28 59 -27 150 0 82 4 109 22 145 31 64 107 147 175 191 79
51 352 157 418 162 10 1 19 4 19 8 0 6 107 32 113 27 2 -2 10 2 18 8 14 11 48
22 99 30 14 3 36 9 50 14 22 8 129 37 170 45 8 2 15 4 15 5 0 2 14 5 53 14 13
3 32 8 42 11 10 3 28 8 39 10 12 3 31 7 44 10 12 3 31 7 42 9 11 2 34 10 50
17 17 7 32 13 35 14 27 6 73 41 85 64 8 16 17 62 20 103 3 40 9 96 15 123 5
28 11 66 14 85 3 19 12 67 20 105 8 39 17 87 20 108 6 39 40 147 56 182 27 56
61 178 75 268 37 253 93 357 275 508 l43 36 -22 69 c-12 38 -23 85 -25 104 -7
78 44 198 111 262 24 23 96 52 105 43 3 -4 85 -12 203 -21 157 -12 257 -4 400
36 22 6 54 13 70 16 49 8 125 43 207 96 42 27 86 51 97 53 12 2 25 7 31 10 5
3 26 8 47 10 21 3 58 7 83 10 25 3 60 8 78 10 71 8 102 26 143 81 48 66 50 66
167 -14z"/>
</g>
</svg>
